<svg xmlns="http://www.w3.org/2000/svg" width="126.557" height="110.737" viewBox="0 0 126.557 110.737">
  <path id="Icon_awesome-hamburger" data-name="Icon awesome-hamburger" d="M114.692,57.619H11.865a11.865,11.865,0,0,0,0,23.729H114.692a11.865,11.865,0,0,0,0-23.729Zm3.955,31.639H7.91a3.955,3.955,0,0,0-3.955,3.955v3.955a15.82,15.82,0,0,0,15.82,15.82h87.008a15.82,15.82,0,0,0,15.82-15.82V93.213A3.955,3.955,0,0,0,118.647,89.258ZM14.495,49.709h97.567c8.545,0,13.5-10.851,8.607-18.756-9.932-16.047-31.795-28.678-57.39-28.7-25.593.025-47.459,12.656-57.39,28.7C.989,38.855,5.95,49.709,14.495,49.709ZM94.917,22.024a3.955,3.955,0,1,1-3.955,3.955A3.955,3.955,0,0,1,94.917,22.024Zm-31.639-7.91a3.955,3.955,0,1,1-3.955,3.955A3.955,3.955,0,0,1,63.278,14.115Zm-31.639,7.91a3.955,3.955,0,1,1-3.955,3.955A3.955,3.955,0,0,1,31.639,22.024Z" transform="translate(0 -2.25)" fill="#fff"/>
</svg>
