<svg xmlns="http://www.w3.org/2000/svg" width="215.765" height="143.844" viewBox="0 0 215.765 143.844">
  <path id="Icon_awesome-eye" data-name="Icon awesome-eye" d="M214.462,70.953C194.148,31.317,153.931,4.5,107.883,4.5S21.606,31.336,1.3,70.957a12.118,12.118,0,0,0,0,10.934c20.314,39.636,60.531,66.453,106.579,66.453s86.276-26.836,106.579-66.457A12.118,12.118,0,0,0,214.462,70.953Zm-106.579,59.41a53.941,53.941,0,1,1,53.941-53.941A53.941,53.941,0,0,1,107.883,130.363Zm0-89.9a35.7,35.7,0,0,0-9.481,1.42,17.924,17.924,0,0,1-25.06,25.06,35.879,35.879,0,1,0,34.541-26.48Z" transform="translate(0 -4.5)" fill="#eb5554"/>
</svg>
