<svg xmlns="http://www.w3.org/2000/svg" width="74.317" height="74.317" viewBox="0 0 74.317 74.317">
  <path id="Fax" d="M9.29,18.579H4.645A4.645,4.645,0,0,0,0,23.224V69.673a4.645,4.645,0,0,0,4.645,4.645H9.29a4.645,4.645,0,0,0,4.645-4.645V23.224A4.645,4.645,0,0,0,9.29,18.579Zm60.383,4.645V11.213a4.648,4.648,0,0,0-1.36-3.285L61.743,1.36A4.645,4.645,0,0,0,58.458,0H23.224a4.645,4.645,0,0,0-4.645,4.645V69.673a4.645,4.645,0,0,0,4.645,4.645H69.673a4.645,4.645,0,0,0,4.645-4.645v-41.8A4.645,4.645,0,0,0,69.673,23.224ZM41.8,62.705a2.322,2.322,0,0,1-2.322,2.322H34.836a2.322,2.322,0,0,1-2.322-2.322V58.06a2.322,2.322,0,0,1,2.322-2.322h4.645A2.322,2.322,0,0,1,41.8,58.06Zm0-18.579a2.322,2.322,0,0,1-2.322,2.322H34.836a2.322,2.322,0,0,1-2.322-2.322V39.481a2.322,2.322,0,0,1,2.322-2.322h4.645A2.322,2.322,0,0,1,41.8,39.481ZM60.383,62.705a2.322,2.322,0,0,1-2.322,2.322H53.416a2.322,2.322,0,0,1-2.322-2.322V58.06a2.322,2.322,0,0,1,2.322-2.322H58.06a2.322,2.322,0,0,1,2.322,2.322Zm0-18.579a2.322,2.322,0,0,1-2.322,2.322H53.416a2.322,2.322,0,0,1-2.322-2.322V39.481a2.322,2.322,0,0,1,2.322-2.322H58.06a2.322,2.322,0,0,1,2.322,2.322Zm2.322-16.257H25.547V6.967H55.738v4.645a2.322,2.322,0,0,0,2.322,2.322h4.645Z" fill="red"/>
</svg>
