<svg xmlns="http://www.w3.org/2000/svg" width="136.166" height="136.166" viewBox="0 0 136.166 136.166">
  <path id="Icon_awesome-globe-americas" data-name="Icon awesome-globe-americas" d="M68.083.562a68.083,68.083,0,1,0,68.083,68.083A68.082,68.082,0,0,0,68.083.562ZM90.674,98.734c-1.071,1.065-2.193,2.183-3.1,3.1a6.56,6.56,0,0,0-1.694,2.94c-.415,1.554-.749,3.124-1.31,4.631l-4.774,12.862a54.865,54.865,0,0,1-11.709,1.288v-7.517c.464-3.465-2.1-9.954-6.213-14.07A8.785,8.785,0,0,1,59.3,95.753V86.965a8.756,8.756,0,0,0-4.519-7.679c-3.945-2.183-9.556-5.233-13.4-7.168a39.575,39.575,0,0,1-8.689-5.971l-.22-.2a31.514,31.514,0,0,1-4.958-5.694c-2.575-3.78-6.77-10-9.5-14.039A55.2,55.2,0,0,1,46.349,18.245l6.591,3.3A4.393,4.393,0,0,0,59.3,17.613v-3.1a54.866,54.866,0,0,1,6.7-.664l7.769,7.769a4.393,4.393,0,0,1,0,6.213l-1.288,1.285-2.839,2.839a2.2,2.2,0,0,0,0,3.1l1.288,1.288a2.2,2.2,0,0,1,0,3.1l-2.2,2.2a2.2,2.2,0,0,1-1.554.642H64.706a2.195,2.195,0,0,0-1.532.623l-2.723,2.649a2.2,2.2,0,0,0-.434,2.556l4.28,8.563a2.2,2.2,0,0,1-1.963,3.179H60.786a2.194,2.194,0,0,1-1.439-.538L56.8,57.107a4.4,4.4,0,0,0-4.269-.851l-8.557,2.852a3.281,3.281,0,0,0-.428,6.048l3.042,1.521a18.592,18.592,0,0,0,8.321,1.966c2.888,0,6.2,7.492,8.785,8.785H82.018A8.79,8.79,0,0,1,88.231,80l3.758,3.758a8.374,8.374,0,0,1,2.452,5.922,12.775,12.775,0,0,1-3.767,9.054Zm23.8-25.078a6.589,6.589,0,0,1-3.885-2.737l-4.936-7.4a6.58,6.58,0,0,1,0-7.308l5.378-8.066a6.581,6.581,0,0,1,2.537-2.237l3.563-1.782a53.187,53.187,0,0,1,5.353,31.535Z" transform="translate(0 -0.563)" fill="#fff"/>
</svg>
