<svg id="maleDoc" xmlns="http://www.w3.org/2000/svg" width="329.13" height="611.412" viewBox="0 0 329.13 611.412">
  <g id="Layer_1" data-name="Layer 1" transform="translate(0)">
    <path id="Path_1" data-name="Path 1" d="M82.026,647,77.16,671.75l27.791,12.975L116.634,659.1Z" transform="translate(-11.981 -100.463)" fill-rule="evenodd"/>
    <path id="Path_2" data-name="Path 2" d="M81.389,715.188l14.36-33.164s-16.236-7.442-29.371-12.84c-20.569,3.066-51.7,1.3-62-.845C1.563,675.317,0,680.073,0,680.073Z" transform="translate(0 -103.777)" fill-rule="evenodd"/>
    <path id="Path_3" data-name="Path 3" d="M321.84,646.513,333.8,657.579l25.849-19.006-9.123-12.063Z" transform="translate(-49.974 -97.282)" fill-rule="evenodd"/>
    <path id="Path_4" data-name="Path 4" d="M350.851,637.19l21.735,28.5-46.637,36.6H279.86l.1-12.1s32.674-5.913,32.573-5.82c6.758-8.05,12.249-27.471,12.249-27.471Z" transform="translate(-43.455 -98.94)" fill-rule="evenodd"/>
    <path id="Path_5" data-name="Path 5" d="M238.44,338.14S253.594,450.049,258.967,462.1,316.34,582.5,316.34,582.5l-37.582,26.955s-83.67-126.143-87.463-132.9c-2.45-4.325-8.979-30.081-8.979-30.081L117.881,621.934l-42.7-19.513,44.83-259.77Z" transform="translate(-11.674 -52.505)" fill="#aadaf1" fill-rule="evenodd"/>
    <path id="Path_6" data-name="Path 6" d="M208.552,340.2,175,341.476l.245,8.092Zm-32.708,30.655,3.843,125.29,18.119-49.205Z" transform="translate(-27.173 -52.825)" fill="#73a9c3" fill-rule="evenodd"/>
    <path id="Path_7" data-name="Path 7" d="M197.424,450.436,172.26,362.72" transform="translate(-26.748 -56.322)" fill="none" stroke="#0097f7" stroke-linecap="round" stroke-linejoin="round" stroke-width="1.7"/>
    <path id="Path_8" data-name="Path 8" d="M306.745,571.534l-35.022-64.79c6.842-6.918,9.706-14.31-5.981-5.541-11.632,6.5-13.575,4.291-3.379-6.952,13.727-15.1,11.336-17.173-2.162-14.994" transform="translate(-39.711 -74.303)" fill="none" stroke="#0097f7" stroke-linecap="round" stroke-linejoin="round" stroke-width="1.7"/>
    <path id="Path_9" data-name="Path 9" d="M261.686,456.663S250.4,377.53,247.14,367.79" transform="translate(-38.375 -57.109)" fill="none" stroke="#0097f7" stroke-linecap="round" stroke-linejoin="round" stroke-width="1.7"/>
    <path id="Path_10" data-name="Path 10" d="M126.26,554.608c1.242-5.313,7.966-52.626,12.147-53.792,19.868-5.524,23.458-13.254,4.477-18.668-18.584-5.313-18.516-6.91-1.757-12.012,17.148-5.229,13.769-8,2.745-17.841-3.734-3.337,13.4-45.032,14.36-49.1" transform="translate(-19.605 -62.607)" fill="none" stroke="#0097f7" stroke-linecap="round" stroke-linejoin="round" stroke-width="1.7"/>
    <path id="Path_11" data-name="Path 11" d="M298.753,237.539c-.11-6.513,1.292-18.119-1.613-25.1s-22.09-3.97-22.09-3.97S298.854,244.018,298.753,237.539Z" transform="translate(-42.709 -32.27)" fill="#f77f89" fill-rule="evenodd"/>
    <path id="Path_12" data-name="Path 12" d="M194.556,110.15c43.6,0,79.184,22.09,79.531,55.566a167.494,167.494,0,0,0,4.08,36.12L239.5,211.449s13.431,92.219,8.718,96.1c-14.022,11.556-112.4,15.425-124.605,2.847-1.073-15.56,8.388-57.019,8.388-57.019S101.982,182.6,118.252,149.227c15.416-31.635,55.946-37.32,73.913-37.937C193.153,111.257,193.711,110.15,194.556,110.15Z" transform="translate(-17.611 -17.104)" fill="#fff" fill-rule="evenodd"/>
    <path id="Path_13" data-name="Path 13" d="M224.514,35.478C224.767,20.535,209.5,0,187.523,0,170.3,0,152.7,8.194,152.256,21.524c-.9-5.508-1.749-8.912-1.124-11.953-3.717-.186-11.193,9.4-11.193,22.208,0,4.95,3.86,23.652,14.842,23.424S207.67,69.977,207.67,69.977s2.754,4.029,6.471,3.725,10.753-7.273,10.812-11.117-3.421-10.753-3.379-12.89S224.252,50.4,224.514,35.478Z" transform="translate(-21.729)" fill="#502710" fill-rule="evenodd"/>
    <path id="Path_14" data-name="Path 14" d="M176.416,161.64l-7.746,28.18" transform="translate(-26.19 -25.099)" fill="none" stroke="#000" stroke-linecap="round" stroke-linejoin="round" stroke-width="3.41"/>
    <path id="Path_15" data-name="Path 15" d="M151.92,58.7a32.691,32.691,0,1,1,32.685,32.682A32.691,32.691,0,0,1,151.92,58.7Z" transform="translate(-23.589 -4.037)" fill="#f77f89" fill-rule="evenodd"/>
    <path id="Path_16" data-name="Path 16" d="M150.06,44.41s4.393-.845,10.855-10.407a75.679,75.679,0,0,0,32.623-1.96c.144,6.817,5.144,17.976,12.029,16.742s9.706-17.824,9.706-17.824L199.046,14l-24.539.16L157.232,26.333Z" transform="translate(-23.301 -2.174)" fill="#502710" fill-rule="evenodd"/>
    <path id="Path_18" data-name="Path 18" d="M222.993,72.636c-.845,5.2-2.534,29.9.144,35.157-5.972,6.014-23.483,8.608-32.657,6,.718-7.129-2.239-14.1-3.818-16.945S223.812,67.433,222.993,72.636Z" transform="translate(-28.977 -11.174)" fill="#f77f89" fill-rule="evenodd"/>
    <path id="Path_22" data-name="Path 22" d="M234.93,150.5c17.942-.346,53.522-2.534,57.095,12.671s6.969,41.282,5.009,44.855-38.494,8.1-38.494,8.1C255.651,208.815,239.7,167.567,234.93,150.5Z" transform="translate(-36.479 -23.322)" fill="#fff" fill-rule="evenodd"/>
    <path id="Path_23" data-name="Path 23" d="M261.2,255.162c-9.883,1.6-68.212-39.035-75.442-38.241s-25.789.084-25.789.084-10.559-40.471,11.97-41.966c1.394-.093,9.647,7.248,9.647,7.248a4.554,4.554,0,0,1,3.886.583c2.914,2.382,12.392,13.152,17.131,14.859,7.974,2.88,72.689,15.121,75.789,20.273S284.909,251.318,261.2,255.162Z" transform="translate(-24.455 -27.179)" fill="#f77f89" fill-rule="evenodd"/>
    <path id="Path_24" data-name="Path 24" d="M95.628,196h45.235a15.7,15.7,0,0,1,13.254,8.65l31.838,72.317c2.1,4.773-.422,8.642-5.643,8.642H135.085a15.721,15.721,0,0,1-13.262-8.642L89.994,204.642C87.89,199.86,90.416,196,95.628,196Z" transform="translate(-13.859 -30.434)" fill="#f7d167" fill-rule="evenodd"/>
    <path id="Path_25" data-name="Path 25" d="M95.056,258.485c-2.154-5.558-3.691-13.237-.667-18.153S109.053,220.278,113.877,220s17.207,13.144,18.533,17.494.845,13.8-1.233,17.874-10.415,11.978-14.614,12.139S96.332,261.881,95.056,258.485Z" transform="translate(-14.394 -34.16)" fill="#f77f89" fill-rule="evenodd"/>
    <path id="Path_26" data-name="Path 26" d="M92.619,246.1c-.583-8.971-4.494-18.685-7.146-25.274-1.774-4.384-.465-8.143,2.534-9s12.3,11.412,12.569,20.9S93.21,255.048,92.619,246.1Z" transform="translate(-13.147 -32.886)" fill="#f77f89" fill-rule="evenodd"/>
    <path id="Path_27" data-name="Path 27" d="M93.42,244.607a50.777,50.777,0,0,1,8.506-13.017" transform="translate(-14.506 -35.96)" fill="none" stroke="#81666f" stroke-linecap="round" stroke-linejoin="round" stroke-width="1.7"/>
    <path id="Path_28" data-name="Path 28" d="M107.62,244.931c0-4.823,9.833-18.888,13.516-20.611" transform="translate(-16.711 -34.831)" fill="none" stroke="#905f6f" stroke-linecap="round" stroke-linejoin="round" stroke-width="1.7"/>
    <path id="Path_29" data-name="Path 29" d="M119.05,252.2c.11-2.34,7.763-15.087,12.147-17.621" transform="translate(-18.486 -36.425)" fill="none" stroke="#8b5d6c" stroke-linecap="round" stroke-linejoin="round" stroke-width="1.7"/>
    <path id="Path_30" data-name="Path 30" d="M140.167,166.86c-.845,4.95-1.639,15.534.405,24.59" transform="translate(-21.627 -25.909)" fill="none" stroke="#aadaf1" stroke-linecap="round" stroke-linejoin="round" stroke-width="1.7"/>
    <path id="Path_31" data-name="Path 31" d="M207.69,191.2l28.509.574" transform="translate(-32.249 -29.689)" fill="none" stroke="#aadaf1" stroke-linecap="round" stroke-linejoin="round" stroke-width="1.7"/>
    <path id="Path_32" data-name="Path 32" stroke="#aadaf1" d="M188.5,113c-.414,4.173-5.364,31.153,11.294,31.153,10.72,0,27.361-24.936,24.725-32.37" fill="#f77f89" transform="translate(-29.113 -17.357)" stroke-linecap="round" stroke-linejoin="round" stroke-width="1.7" fill-rule="evenodd"/>
    <path id="Path_33" data-name="Path 33" d="M210.89,58.06A12.451,12.451,0,1,1,223.338,70.5,12.451,12.451,0,0,1,210.89,58.06Z" transform="translate(-32.746 -7.081)" fill="#f77f89" fill-rule="evenodd"/>
    <path id="Path_36" data-name="Path 36" d="M254.068,205.025c-4.773-12.51-11.623-30.875-15.948-44.035" transform="translate(-36.974 -24.998)" fill="none" stroke="#aadaf1" stroke-linecap="round" stroke-linejoin="round" stroke-width="1.7"/>
    <path id="Path_38" data-name="Path 38" d="M84.478,709.984,2.65,674.81" transform="translate(-0.411 -104.781)" fill="none" stroke="#7c7c7c" stroke-linecap="round" stroke-linejoin="round" stroke-width="1.7"/>
    <path id="Path_39" data-name="Path 39" d="M279.91,701.322l43.715-1.512,44.83-35.309" transform="translate(-43.463 -103.181)" fill="none" stroke="#7c7c7c" stroke-linecap="round" stroke-linejoin="round" stroke-width="1.7"/>
  </g>
</svg>
