<svg xmlns="http://www.w3.org/2000/svg" width="58.005" height="51.56" viewBox="0 0 58.005 51.56">
  <path id="Icon_awesome-map-marked-alt" data-name="Icon awesome-map-marked-alt" d="M29,0A12.688,12.688,0,0,0,16.314,12.689c0,5.666,8.293,15.992,11.47,19.74a1.588,1.588,0,0,0,2.437,0c3.177-3.748,11.47-14.074,11.47-19.74A12.688,12.688,0,0,0,29,0Zm0,16.918a4.23,4.23,0,1,1,4.23-4.23A4.229,4.229,0,0,1,29,16.918ZM2.026,21.747A3.223,3.223,0,0,0,0,24.739V49.947a1.611,1.611,0,0,0,2.209,1.5l13.9-6.328V21.643a30.5,30.5,0,0,1-2.14-4.675ZM29,36.22a4.812,4.812,0,0,1-3.677-1.708c-1.98-2.336-4.086-5-5.991-7.726V45.114L38.67,51.559V26.787c-1.905,2.728-4.01,5.39-5.991,7.726A4.814,4.814,0,0,1,29,36.22ZM55.8,16.229l-13.9,6.328v29l14.086-5.634a3.222,3.222,0,0,0,2.026-2.992V17.726A1.611,1.611,0,0,0,55.8,16.229Z" fill="#fff"/>
</svg>
