<svg xmlns="http://www.w3.org/2000/svg" width="50.897" height="50.893" viewBox="0 0 50.897 50.893">
  <path id="pinkPhone" d="M53.917,44.353a42.75,42.75,0,0,0-8.93-5.976c-2.676-1.285-3.657-1.259-5.552.106-1.577,1.139-2.6,2.2-4.412,1.8s-5.393-3.1-8.864-6.559-6.174-7.049-6.559-8.864.676-2.835,1.8-4.412c1.365-1.895,1.4-2.875.106-5.552a41.9,41.9,0,0,0-5.976-8.93c-1.948-1.948-2.385-1.524-3.458-1.139A19.678,19.678,0,0,0,8.908,6.512a9.553,9.553,0,0,0-3.8,4.015c-.755,1.63-1.63,4.664,2.822,12.587A70.235,70.235,0,0,0,20.276,39.583h0l.013.013.013.013h0A70.509,70.509,0,0,0,36.772,51.958c7.923,4.452,10.957,3.577,12.587,2.822a9.39,9.39,0,0,0,4.015-3.8,19.678,19.678,0,0,0,1.683-3.167C55.44,46.738,55.878,46.3,53.917,44.353Z" transform="translate(-4.49 -4.503)" fill="#e86f6f"/>
</svg>
