<svg xmlns="http://www.w3.org/2000/svg" width="58.906" height="40.781" viewBox="0 0 58.906 40.781">
  <g id="pinkMail" transform="translate(-3.375 -7.875)">
    <path id="Path_114" data-name="Path 114" d="M61.8,10.4,46.563,25.92a.274.274,0,0,0,0,.4L57.226,37.673a1.838,1.838,0,0,1,0,2.605,1.846,1.846,0,0,1-2.605,0L44,28.965a.291.291,0,0,0-.411,0L41,31.6a11.4,11.4,0,0,1-8.128,3.427,11.63,11.63,0,0,1-8.3-3.526l-2.492-2.535a.291.291,0,0,0-.411,0L11.05,40.279a1.846,1.846,0,0,1-2.605,0,1.837,1.837,0,0,1,0-2.605L19.107,26.317a.3.3,0,0,0,0-.4L3.856,10.4a.279.279,0,0,0-.481.2V41.652a4.545,4.545,0,0,0,4.531,4.531H57.75a4.545,4.545,0,0,0,4.531-4.531V10.6A.283.283,0,0,0,61.8,10.4Z" transform="translate(0 2.473)" fill="#e86f6f"/>
    <path id="Path_115" data-name="Path 115" d="M31.966,33.8A7.7,7.7,0,0,0,37.5,31.48L59.719,8.866a4.45,4.45,0,0,0-2.8-.991H7.029a4.421,4.421,0,0,0-2.8.991L26.443,31.48A7.7,7.7,0,0,0,31.966,33.8Z" transform="translate(0.863)" fill="#e86f6f"/>
  </g>
</svg>
