<svg xmlns="http://www.w3.org/2000/svg" width="64.652" height="64.652" viewBox="0 0 64.652 64.652">
  <path id="redPhone" d="M62.808,45.686,48.665,39.625a3.031,3.031,0,0,0-3.536.871l-6.263,7.652A46.805,46.805,0,0,1,16.492,25.774l7.652-6.263a3.023,3.023,0,0,0,.871-3.536L18.954,1.832A3.051,3.051,0,0,0,15.481.077L2.349,3.107A3.031,3.031,0,0,0,0,6.061,58.585,58.585,0,0,0,58.592,64.653,3.031,3.031,0,0,0,61.547,62.3l3.031-13.133A3.067,3.067,0,0,0,62.808,45.686Z" transform="translate(0 0)" fill="red"/>
</svg>
