<svg xmlns="http://www.w3.org/2000/svg" width="129.328" height="181.352" viewBox="0 0 129.328 181.352">
  <path id="Icon_metro-steps" data-name="Icon metro-steps" d="M35.881,3.856c-15.2,0-27.527,20.3-27.527,45.338,0,13.931,3.445,28.709,6.882,51.519,2.692,17.87,9.244,32.68,20.645,32.68s19.042-9.875,19.042-27.925c0-6.147-5.054-15.939-5.279-24.294C49.236,66.1,59.751,60.089,59.751,46.158c0-25.039-8.669-42.3-23.869-42.3Zm74.275,51.815c-15.2,0-23.869,17.263-23.869,42.3,0,13.931,10.515,19.945,10.106,35.015-.224,8.355-5.279,18.147-5.279,24.294,0,18.05,7.641,27.925,19.042,27.925s17.953-14.81,20.645-32.68c3.437-22.811,6.882-37.588,6.882-51.519,0-25.039-12.324-45.338-27.527-45.338Z" transform="translate(-8.355 -3.856)" fill="#fff"/>
</svg>
